<?xml version="1.0" encoding="UTF-8"?>
<svg id="_レイヤー_2" data-name="レイヤー 2" xmlns="http://www.w3.org/2000/svg" viewBox="0 0 509.93 72">
  <defs>
    <style>
      .cls-1 {
        fill: #383e5a;
      }

      .cls-2 {
        fill: #666;
      }
    </style>
  </defs>
  <g id="_レイヤー_3" data-name="レイヤー 3">
    <g>
      <path class="cls-2" d="M10.96,54.92V17.11c0-7.6,3.29-14.14,10.24-17.11H0v72h21.14c-6.91-2.98-10.18-9.5-10.18-17.08Z"/>
      <path class="cls-2" d="M217.81,9.69h-4.37v52.66h4.37c6.71,0,9.05-2.54,9.05-10.27V19.95c0-7.73-2.34-10.27-9.05-10.27Z"/>
      <path class="cls-2" d="M248.3,54.92V17.11c0-7.6,3.29-14.14,10.24-17.11h-32.69c8.92,2.09,13.61,9.09,13.61,21.48v29.07c0,12.32-4.65,19.32-13.48,21.45h32.5c-6.91-2.98-10.18-9.5-10.18-17.08Z"/>
      <path class="cls-2" d="M170.44,9.69h-4.47v22.57h4.47c6.81,0,9.35-2.54,9.35-11.28s-2.54-11.28-9.35-11.28Z"/>
      <path class="cls-2" d="M276.05,0c6.9,3.14,10.27,10.27,10.27,18.43v5.39h-12.6v-5.69c0-6.2-2.85-8.84-6.1-8.84-5.08,0-6.71,2.64-6.71,8.13v37.21c0,5.49,1.63,8.13,6.71,8.13,4.57,0,6.1-2.64,6.1-7.42v-8.84h12.6v8.44c0,7.57-3.27,14.1-9.94,17.08h14.64L304.29,0h-28.24Z"/>
      <polygon class="cls-2" points="312.14 13.96 307.16 45.47 317.32 45.47 312.34 13.96 312.14 13.96"/>
      <polygon class="cls-2" points="305.33 56.45 303.19 72 321.29 72 319.15 56.45 305.33 56.45"/>
      <path class="cls-2" d="M165.97,42.62v29.38h15.24l-8.74-29.68c-1.63.2-4.27.31-6.51.31Z"/>
      <path class="cls-2" d="M178.37,0c9.29,1.96,14.03,8.3,14.03,20.97,0,11.79-4.58,16.57-8.84,18.5l10.45,32.53h6.83V0h-22.46Z"/>
      <rect class="cls-2" x="71.03" y="40.18" width="13.42" height="31.82"/>
      <rect class="cls-2" x="71.03" width="13.42" height="29.2"/>
      <path class="cls-2" d="M38.7,0c6.9,3.14,10.27,10.27,10.27,18.43v5.39h-12.6v-5.69c0-6.2-2.85-8.84-6.1-8.84-5.08,0-6.71,2.64-6.71,8.13v37.21c0,5.49,1.63,8.13,6.71,8.13,4.57,0,6.1-2.64,6.1-7.42v-8.84h12.6v8.44c0,7.57-3.27,14.1-9.94,17.08h19.39V0h-19.72Z"/>
      <path class="cls-2" d="M125.21,9.28c-5.08,0-6.71,2.64-6.71,8.13v37.21c0,5.49,1.63,8.13,6.71,8.13s6.71-2.64,6.71-8.13V17.41c0-5.49-1.63-8.13-6.71-8.13Z"/>
      <polygon class="cls-2" points="320.19 0 333.45 72 337.55 72 337.55 0 320.19 0"/>
      <path class="cls-2" d="M105.89,54.92V17.11c0-7.6,3.29-14.14,10.24-17.11h-19.08v72h19.02c-6.91-2.98-10.18-9.5-10.18-17.08Z"/>
      <path class="cls-2" d="M134.28,0c6.95,2.96,10.24,9.51,10.24,17.11v37.82c0,7.57-3.27,14.1-10.18,17.08h19.02V0h-19.08Z"/>
      <polygon class="cls-2" points="432.58 56.45 430.45 72 448.55 72 446.41 56.45 432.58 56.45"/>
      <path class="cls-2" d="M509.93,0h-19.96c5.62,2.75,9,8.66,9.8,16.09l-11.99,1.32c-.51-6.3-3.86-8.13-6.71-8.13-4.07,0-6.3,2.64-6.3,7.22,0,12.5,25.62,18.5,25.62,38.43,0,8.53-4.06,14.37-10.58,17.08h20.13V0Z"/>
      <polygon class="cls-2" points="422.99 0 407.93 72 418.28 72 431.54 0 422.99 0"/>
      <polygon class="cls-2" points="376.17 0 376.17 72 395.03 72 379.97 0 376.17 0"/>
      <polygon class="cls-2" points="401.58 50.25 410.61 0 392.35 0 401.38 50.25 401.58 50.25"/>
      <polygon class="cls-2" points="439.4 13.96 434.41 45.47 444.58 45.47 439.6 13.96 439.4 13.96"/>
      <polygon class="cls-2" points="364.79 41.3 364.79 0 349.48 0 364.59 41.3 364.79 41.3"/>
      <path class="cls-2" d="M461.55,53.4l11.99-1.73c.51,7.42,3.46,11.08,7.52,11.08,4.37,0,7.32-2.34,7.32-6.71,0-14.54-25.62-18.4-25.62-39.44,0-8.24,3.55-13.94,9.99-16.6h-25.31l13.26,72h11.75c-6.73-3.19-10.54-10.44-10.91-18.6Z"/>
      <polygon class="cls-2" points="348.93 26.86 348.93 72 364.95 72 349.13 26.86 348.93 26.86"/>
      <path class="cls-1" d="M48.97,54.92v-8.44h-12.6v8.84c0,4.78-1.53,7.42-6.1,7.42-5.08,0-6.71-2.64-6.71-8.13V17.41c0-5.49,1.63-8.13,6.71-8.13,3.25,0,6.1,2.64,6.1,8.84v5.69h12.6v-5.39c0-8.15-3.37-15.29-10.27-18.43h-17.51c-6.95,2.96-10.24,9.51-10.24,17.11v37.82c0,7.57,3.27,14.1,10.18,17.08h17.9c6.67-2.98,9.94-9.5,9.94-17.08Z"/>
      <polygon class="cls-1" points="84.45 0 84.45 29.2 71.03 29.2 71.03 0 58.42 0 58.42 72 71.03 72 71.03 40.18 84.45 40.18 84.45 72 97.05 72 97.05 0 84.45 0"/>
      <path class="cls-1" d="M144.52,54.92V17.11c0-7.6-3.29-14.14-10.24-17.11h-18.15c-6.95,2.96-10.24,9.51-10.24,17.11v37.82c0,7.57,3.27,14.1,10.18,17.08h18.27c6.91-2.98,10.18-9.5,10.18-17.08ZM131.92,54.62c0,5.49-1.63,8.13-6.71,8.13s-6.71-2.64-6.71-8.13V17.41c0-5.49,1.63-8.13,6.71-8.13s6.71,2.64,6.71,8.13v37.21Z"/>
      <path class="cls-1" d="M192.4,20.97c0-12.67-4.73-19.01-14.03-20.97h-25.01v72h12.6v-29.38c2.24,0,4.88-.1,6.51-.31l8.74,29.68h12.79l-10.45-32.53c4.27-1.93,8.84-6.71,8.84-18.5ZM170.44,32.25h-4.47V9.69h4.47c6.81,0,9.35,2.54,9.35,11.28s-2.54,11.28-9.35,11.28Z"/>
      <path class="cls-1" d="M239.46,50.55v-29.07c0-12.39-4.7-19.39-13.61-21.48h-25.01v72h25.15c8.83-2.13,13.48-9.12,13.48-21.45ZM226.86,52.07c0,7.73-2.34,10.27-9.05,10.27h-4.37V9.69h4.37c6.71,0,9.05,2.54,9.05,10.27v32.12Z"/>
      <path class="cls-1" d="M286.32,54.92v-8.44h-12.6v8.84c0,4.78-1.53,7.42-6.1,7.42-5.08,0-6.71-2.64-6.71-8.13V17.41c0-5.49,1.63-8.13,6.71-8.13,3.25,0,6.1,2.64,6.1,8.84v5.69h12.6v-5.39c0-8.15-3.37-15.29-10.27-18.43h-17.51c-6.95,2.96-10.24,9.51-10.24,17.11v37.82c0,7.57,3.27,14.1,10.18,17.08h17.9c6.67-2.98,9.94-9.5,9.94-17.08Z"/>
      <path class="cls-1" d="M304.29,0l-13.26,72h12.16l2.14-15.55h13.82l2.14,15.55h12.17L320.19,0h-15.91ZM307.16,45.47l4.98-31.51h.2l4.98,31.51h-10.16Z"/>
      <polygon class="cls-1" points="364.79 0 364.79 41.3 364.59 41.3 349.48 0 337.55 0 337.55 72 348.93 72 348.93 26.86 349.13 26.86 364.95 72 376.17 72 376.17 0 364.79 0"/>
      <polygon class="cls-1" points="410.61 0 401.58 50.25 401.38 50.25 392.35 0 379.97 0 395.03 72 407.93 72 422.99 0 410.61 0"/>
      <path class="cls-1" d="M431.54,0l-13.26,72h12.17l2.14-15.55h13.83l2.14,15.55h12.17L447.45,0h-15.91ZM434.41,45.47l4.98-31.51h.2l4.98,31.51h-10.17Z"/>
      <path class="cls-1" d="M500.38,54.92c0-19.92-25.62-25.92-25.62-38.43,0-4.57,2.24-7.22,6.3-7.22,2.85,0,6.2,1.83,6.71,8.13l11.99-1.32c-.8-7.43-4.18-13.34-9.8-16.09h-17.22c-6.43,2.65-9.99,8.36-9.99,16.6,0,21.04,25.62,24.91,25.62,39.44,0,4.37-2.95,6.71-7.32,6.71-4.07,0-7.01-3.66-7.52-11.08l-11.99,1.73c.38,8.16,4.19,15.41,10.91,18.6h17.33c6.52-2.71,10.58-8.54,10.58-17.08Z"/>
    </g>
  </g>
</svg>